<svg width="48" height="48" viewBox="0 0 48 48" fill="none" xmlns="http://www.w3.org/2000/svg">
<path d="M24.0004 0C10.7665 0 0.000244141 10.7662 0.000244141 24.0004C0.000244141 37.2346 10.7665 48 24.0004 48C37.2344 48 48.0002 37.235 48.0002 24.0004C48.0002 10.7658 37.2344 0 24.0004 0ZM35.2519 24.7611C35.2519 25.1649 34.948 25.5007 34.5434 25.5007H25.8887C25.6825 25.5007 25.5016 25.6618 25.5016 25.8676V34.5432C25.5016 34.9463 25.1841 35.2529 24.7817 35.2529H23.253C22.8487 35.2529 22.4997 34.9463 22.4997 34.5432V25.8676C22.4997 25.6618 22.3522 25.5007 22.1452 25.5007H13.5073C13.1034 25.5007 12.7482 25.1649 12.7482 24.7611V23.2323C12.7482 22.8296 13.1034 22.5 13.5073 22.5H22.1452C22.3522 22.5 22.4997 22.3323 22.4997 22.125V13.5058C22.4997 13.1019 22.8483 12.7474 23.253 12.7474H24.7817C25.1837 12.7474 25.5016 13.1019 25.5016 13.5058V22.125C25.5016 22.3323 25.6681 22.5 25.8767 22.5H34.5434C34.948 22.5 35.2519 22.8296 35.2519 23.2323V24.7611Z" fill="black"/>
</svg>
